<?xml version="1.0" encoding="utf-8"?>
<!-- Generator: Adobe Illustrator 15.0.0, SVG Export Plug-In . SVG Version: 6.00 Build 0)  -->
<!DOCTYPE svg PUBLIC "-//W3C//DTD SVG 1.1//EN" "http://www.w3.org/Graphics/SVG/1.1/DTD/svg11.dtd">
<svg version="1.1" xmlns="http://www.w3.org/2000/svg" xmlns:xlink="http://www.w3.org/1999/xlink" x="0px" y="0px" width="360px"
	 height="360px" viewBox="0 0 360 360" style="enable-background:new 0 0 360 360;" xml:space="preserve">
<style type="text/css">
<![CDATA[
	.st0{fill:none;stroke:#000000;stroke-width:0.425;stroke-miterlimit:10;}
]]>
</style>
<g id="Layer_1">
</g>
<g id="_x3E_">
	<path class="st0" d="M11169.828,315.767l230.854-109.841l-230.854-109.821V85.946l236.938,113.897v12.186l-236.938,113.897V315.767
		z"/>
</g>
<g id="_x3C_">
	<path class="st0" d="M10831.18,212.028v-12.186l236.938-113.897v10.159l-230.855,109.821l230.855,109.841v10.159L10831.18,212.028z
		"/>
</g>
<g id="_x2B_">
	<path class="st0" d="M10616.586,326.96h-10.178V210.001h-113.877v-9.145h113.877V83.897h10.178v116.959h112.387v9.145h-112.387
		V326.96z"/>
</g>
<g id="_x2A_">
	<path class="st0" d="M10421.855,60.518l3.061,8.648l-78.33,25.407l49.324,72.207l-7.613,5.09l-47.793-72.704l-47.795,72.704
		l-7.652-5.09l49.322-72.207l-78.289-25.407l3.061-8.648l76.76,26.441V0.001h9.146v86.958L10421.855,60.518z"/>
</g>
<g id="_x26_">
	<path class="st0" d="M10204.24,360.001l-39.145-60.517c-3.723,9.848-7.902,18.91-12.453,27.206
		c-4.594,8.317-9.934,15.684-16.016,22.118c-6.123,6.455-13.24,11.44-21.352,15c-8.152,3.559-17.461,5.338-27.973,5.338
		c-11.172,0-21.434-2.276-30.785-6.849c-9.311-4.593-17.338-11.193-24.125-19.842c-6.785-8.647-12.041-19.138-15.766-31.53
		c-3.723-12.353-5.586-26.338-5.586-41.938c0-13.221,1.574-25.076,4.801-35.586c3.227-10.511,7.738-20.007,13.488-28.49
		c5.754-8.462,12.539-16.262,20.359-23.379c7.779-7.118,16.262-14.069,25.406-20.855c-6.453-10.159-11.793-19.324-16.012-27.455
		c-4.264-8.131-7.738-15.848-10.43-23.131c-2.73-7.283-4.676-14.317-5.834-21.104c-1.199-6.786-1.779-13.738-1.779-20.855
		c0-24.393,5.133-43.386,15.477-56.938c10.344-13.552,24.496-20.338,42.496-20.338c17.254,0,30.828,6.6,40.676,19.821
		c9.809,13.221,14.73,30.352,14.73,51.352c0,12.207-1.613,22.986-4.84,32.297c-3.229,9.331-7.781,17.876-13.738,25.676
		c-5.918,7.8-12.869,15.186-20.814,22.117c-7.986,6.952-16.717,13.986-26.193,21.104l73.738,114.91l39.641-105.765h11.711
		l-43.738,114.414l47.297,73.221H10204.24z M10080.186,169.325c-7.82,5.089-15.186,10.862-22.137,17.297
		c-6.953,6.435-13.035,13.717-18.289,21.848c-5.256,8.152-9.477,17.214-12.703,27.207c-3.229,10.014-4.844,21.104-4.844,33.311
		c0,13.903,1.697,26.358,5.09,37.365c3.395,11.028,8.027,20.421,13.988,28.221c5.916,7.801,12.949,13.821,21.102,18.062
		c8.111,4.241,16.758,6.352,25.904,6.352c8.482,0,16.303-1.862,23.42-5.586c7.117-3.745,13.531-8.731,19.324-15
		c5.752-6.27,10.842-13.655,15.227-22.138c4.43-8.463,8.152-17.607,11.215-27.455L10080.186,169.325z M10143.248,64.077
		c0-19.324-4.098-34.841-12.207-46.531c-8.152-11.69-18.992-17.545-32.566-17.545c-13.902,0-25.074,6.29-33.559,18.828
		c-8.48,12.538-12.703,28.8-12.703,48.807c0,16.262,2.814,30.849,8.402,43.717c5.586,12.89,13.447,27.456,23.625,43.738
		c8.484-6.435,16.346-12.787,23.67-19.076c7.283-6.269,13.531-12.952,18.787-20.069c5.254-7.138,9.309-14.834,12.207-23.152
		C10141.799,84.498,10143.248,74.918,10143.248,64.077z"/>
</g>
<g id="_x24_">
	<path class="st0" d="M9877.842,399.663h-11.172v-40.179c-14.938-0.662-28.926-4.221-41.961-10.676
		c-13.074-6.435-23.295-14.566-30.785-24.394l7.656-7.635c8.812,10.862,18.867,18.993,30.248,24.414
		c11.338,5.421,22.965,8.462,34.842,9.145V183.063c-9.85-4.407-18.828-9.166-26.98-14.255c-8.109-5.069-15.145-11.173-21.104-18.29
		c-5.916-7.117-10.51-15.683-13.697-25.676c-3.227-9.993-4.84-21.952-4.84-35.855c0-25.759,6.248-46.18,18.828-61.262
		c12.537-15.083,28.469-23.979,47.793-26.71v-40.676h11.172V1.015c13.902,0,26.938,2.462,39.145,7.386
		c12.207,4.903,22.387,13.304,30.496,25.159l-8.109,7.117c-14.234-20.338-34.758-30.497-61.531-30.497v164.731
		c10.18,4.407,19.656,9.166,28.469,14.235c8.812,5.089,16.51,11.11,23.131,18.062c6.621,6.952,11.793,15.331,15.518,25.159
		c3.723,9.848,5.586,21.868,5.586,36.103c0,14.235-1.863,26.876-5.586,37.883c-3.725,11.028-8.896,20.338-15.518,27.973
		s-14.318,13.655-23.131,18.042c-8.812,4.406-18.289,6.786-28.469,7.117V399.663z M9866.67,10.677
		c-7.49,1.014-14.607,3.476-21.352,7.386c-6.787,3.89-12.746,9.145-17.836,15.745c-5.047,6.621-9.062,14.586-11.918,23.917
		c-2.895,9.311-4.344,19.903-4.344,31.779c0,12.869,1.449,23.731,4.344,32.524c2.855,8.835,6.871,16.283,11.918,22.386
		c5.09,6.104,11.049,11.173,17.836,15.249c6.744,4.076,13.861,7.8,21.352,11.193V10.677z M9877.842,350.339
		c17.627-0.683,32.275-8.379,43.986-23.131c11.67-14.752,17.545-34.324,17.545-58.738c0-12.537-1.697-23.213-5.09-32.027
		c-3.395-8.813-7.904-16.345-13.49-22.634c-5.586-6.27-12.123-11.441-19.572-15.497c-7.449-4.076-15.227-7.966-23.379-11.689
		V350.339z"/>
</g>
<g id="_x40_">
	<path class="st0" d="M9741.537,148.987c0,17.296-1.695,33.725-5.047,49.324c-3.395,15.6-8.359,29.4-14.938,41.441
		c-6.58,12.041-14.525,21.518-23.793,28.469c-9.27,6.952-19.988,10.428-32.111,10.428c-11.131,0-19.654-3.642-25.572-10.944
		c-5.918-7.283-7.697-19.221-5.297-35.835h-0.539c-2.027,5.09-4.385,10.345-7.117,15.766c-2.688,5.421-6.164,10.428-10.426,15
		c-4.223,4.572-9.229,8.379-14.98,11.441c-5.793,3.041-12.537,4.572-20.359,4.572c-9.145,0-16.922-1.862-23.379-5.586
		c-6.453-3.745-11.504-8.648-15.27-14.752c-3.723-6.104-6.412-13.055-8.109-20.855c-1.695-7.8-2.566-15.579-2.566-23.379
		c0-14.917,1.615-30.331,4.844-46.283c3.227-15.931,8.15-30.497,14.771-43.717c6.58-13.221,14.814-24.062,24.619-32.544
		c9.85-8.462,21.561-12.725,35.09-12.725c13.904,0,24.332,4.159,31.285,12.476c6.949,8.296,11.09,19.572,12.453,33.807h2.027
		l9.145-37.117h9.188l-28.469,120.496c-1.365,4.759-2.482,10.015-3.311,15.766c-0.869,5.772-1.283,10.676-1.283,14.752
		c0,10.842,1.945,18.476,5.836,22.883c3.889,4.407,9.766,6.6,17.543,6.6c11.215,0,20.938-3.641,29.256-10.924
		c8.275-7.282,15.062-16.696,20.318-28.221c5.254-11.524,9.227-24.414,11.957-38.648c2.691-14.234,4.055-28.138,4.055-41.689
		c0-21.352-2.441-41.09-7.363-59.234c-4.926-18.125-12.332-33.89-22.18-47.297c-9.848-13.386-22.428-23.813-37.697-31.262
		c-15.268-7.449-33.268-11.193-54-11.193c-22.096,0-41.793,5.007-59.09,15c-17.338,10.014-32.111,23.4-44.318,40.179
		c-12.246,16.779-21.598,36.104-28.012,57.952c-6.457,21.869-9.684,44.503-9.684,67.883c0,24.745,2.773,47.979,8.359,69.662
		c5.627,21.704,14.068,40.676,25.447,56.959c11.338,16.262,25.572,29.069,42.705,38.379c17.129,9.331,37.363,13.986,60.742,13.986
		c11.877,0,23.174-1.613,33.85-4.82c10.676-3.228,20.564-7.552,29.711-12.973c9.186-5.421,17.463-11.606,24.951-18.559
		c7.449-6.951,13.863-14.317,19.324-22.117l8.109,6.6c-5.75,8.132-12.537,15.952-20.316,23.4
		c-7.82,7.448-16.635,14.069-26.441,19.82c-9.848,5.772-20.523,10.346-32.027,13.738c-11.545,3.372-23.918,5.09-37.16,5.09
		c-25.074,0-46.84-4.924-65.336-14.752c-18.457-9.827-33.809-23.297-46.016-40.428c-12.207-17.11-21.268-37.117-27.184-60
		c-5.918-22.883-8.898-47.545-8.898-73.986s3.641-51.269,10.926-74.482c7.24-23.214,17.586-43.469,30.949-60.766
		c13.367-17.297,29.34-30.931,47.961-40.924s39.062-15,61.406-15s41.793,3.973,58.387,11.938
		c16.551,7.965,30.289,19.076,41.09,33.311c10.84,14.234,18.867,31.096,24.123,50.586
		C9738.932,105.187,9741.537,126.27,9741.537,148.987z M9649.51,140.339c0-6.766-0.703-13.303-2.027-19.572
		c-1.365-6.269-3.477-11.772-6.371-16.531c-2.855-4.738-6.787-8.462-11.67-11.172c-4.924-2.71-10.967-4.076-18.084-4.076
		c-11.832,0-22.012,4.076-30.496,12.207c-8.482,8.131-15.516,18.393-21.102,30.765c-5.586,12.373-9.727,25.924-12.457,40.676
		c-2.73,14.732-4.055,28.717-4.055,41.938c0,14.918,3.104,27.642,9.395,38.132c6.289,10.51,16.883,15.765,31.777,15.765
		c7.449,0,14.234-2.358,20.359-7.117c6.082-4.737,11.586-10.924,16.512-18.559c4.922-7.613,9.061-16.262,12.453-25.924
		c3.395-9.662,6.289-19.241,8.648-28.738c2.359-9.476,4.139-18.455,5.34-26.938C9648.932,152.711,9649.51,145.76,9649.51,140.339z"
		/>
</g>
<g id="_x23_">
	<path class="st0" d="M9390.186,129.663l-8.109,99.146h34.551v9.165h-35.09l-9.145,122.027h-10.18l9.145-122.027h-47.793
		l-9.145,122.027h-10.676l9.145-122.027h-33.559v-9.165h34.098l8.648-99.146h-34.098v-9.145h34.594l9.145-120.517h10.18
		l-9.145,120.517h47.793l9.145-120.517h10.676l-9.684,120.517h34.098v9.145H9390.186z M9332.213,129.663l-8.109,99.146h47.793
		l8.109-99.146H9332.213z"/>
</g>
<g id="_x2F_">
	<path class="st0" d="M9152.752,376.264l-10.18-2.524l89.008-388.49l9.641,2.545L9152.752,376.264z"/>
</g>
<g id="_x5C_">
	<path class="st0" d="M8999.732-14.751l88.965,388.49l-10.18,2.524l-88.469-388.47L8999.732-14.751z"/>
</g>
<g id="_x7C_">
	<path class="st0" d="M8911.76-21.351v508.469h-11.174V-21.351H8911.76z"/>
</g>
<g id="_x7D_">
	<path class="st0" d="M8838.559,220.677c-3.766,1.697-6.869,4.676-9.436,8.896c-2.523,4.242-4.551,10.18-6.082,17.794
		c-1.531,7.634-2.275,17.379-2.275,29.255v99.145c0,24.062-3.682,40.676-10.967,49.821c-7.281,9.165-17.543,13.737-30.742,13.737
		h-20.359v-9.165h20.359c12.535,0,20.771-4.655,24.66-14.007c3.891-9.331,5.836-22.676,5.836-40.015v-99.89
		c0-21.393,2.979-36.683,8.895-45.868c5.918-9.166,12.457-14.607,19.574-16.304v-1.014c-7.117-1.696-13.656-7.138-19.574-16.283
		c-5.916-9.145-8.895-24.414-8.895-45.766V51.353c0-17.276-1.945-30.579-5.836-39.91c-3.889-9.311-12.125-13.986-24.66-13.986
		h-20.359v-9.145h20.359c13.199,0,23.461,4.572,30.742,13.696c7.285,9.145,10.967,25.717,10.967,49.717v98.917
		c0,11.834,0.744,21.559,2.275,29.172s3.559,13.531,6.082,17.751c2.566,4.221,5.67,7.2,9.436,8.876
		c3.725,1.696,7.615,2.545,11.67,2.545v9.145C8846.174,218.132,8842.283,218.98,8838.559,220.677z"/>
</g>
<g id="_x7B_">
	<path class="st0" d="M8616.352,208.987c4.057,0,7.945-0.849,11.711-2.545c3.725-1.676,6.869-4.655,9.393-8.876
		s4.594-10.138,6.082-17.751c1.531-7.614,2.318-17.338,2.318-29.172V51.725c0-24,3.643-40.572,10.924-49.717
		c7.283-9.124,17.545-13.696,30.746-13.696h20.357v9.145h-20.357c-12.539,0-20.773,4.676-24.664,13.986
		c-3.889,9.331-5.834,22.634-5.834,39.91v99.662c0,21.352-2.979,36.621-8.896,45.766c-5.918,9.146-12.455,14.587-19.572,16.283
		v1.014c7.117,1.696,13.654,7.138,19.572,16.304c5.918,9.186,8.896,24.455,8.896,45.868v99.89c0,17.339,1.945,30.684,5.834,40.015
		c3.891,9.352,12.125,14.007,24.664,14.007h20.357v9.165h-20.357c-13.201,0-23.463-4.572-30.746-13.737
		c-7.281-9.146-10.924-25.759-10.924-49.821v-99.145c0-11.876-0.787-21.621-2.318-29.255c-1.488-7.614-3.559-13.552-6.082-17.794
		c-2.523-4.221-5.668-7.199-9.393-8.896c-3.766-1.696-7.654-2.545-11.711-2.545V208.987z"/>
</g>
<g id="_x5D_">
	<path class="st0" d="M8524.82,430.16h52.387V-2.544h-52.387v-9.145h63.559v451.014h-63.559V430.16z"/>
</g>
<g id="_x5B_">
	<path class="st0" d="M8410.408,439.325V-11.688h63.559v9.145h-52.387V430.16h52.387v9.165H8410.408z"/>
</g>
<g id="_x29_">
	<path class="st0" d="M8357.027,213.56c0,20.338-1.365,40.676-4.055,61.014c-2.732,20.338-6.705,40.18-11.959,59.504
		c-5.255,19.324-11.627,37.883-19.075,55.676c-7.449,17.793-15.766,34.324-24.911,49.572l-9.145-5.09
		c9.145-13.903,17.255-29.751,24.372-47.545c7.159-17.793,13.159-36.434,18.083-55.924c4.883-19.489,8.731-39.331,11.421-59.503
		c2.73-20.152,4.097-39.394,4.097-57.704s-1.366-37.531-4.097-57.704c-2.689-20.172-6.538-39.993-11.421-59.503
		c-4.924-19.489-10.924-38.131-18.083-55.924c-7.117-17.793-15.228-33.642-24.372-47.545l9.145-5.09
		c9.146,15.269,17.462,31.779,24.911,49.593c7.448,17.793,13.82,36.352,19.075,55.676c5.254,19.304,9.227,39.145,11.959,59.483
		C8355.662,172.884,8357.027,193.222,8357.027,213.56z"/>
</g>
<g id="_x28_">
	<path class="st0" d="M8173.966,213.56c0-20.338,1.365-40.676,4.097-61.014c2.689-20.338,6.662-40.179,11.917-59.483
		c5.255-19.324,11.628-37.883,19.076-55.676c7.448-17.814,15.765-34.324,24.91-49.593l9.186,5.09
		c-9.186,13.903-17.296,29.751-24.413,47.545c-7.117,17.793-13.159,36.435-18.042,55.924c-4.924,19.511-8.73,39.331-11.462,59.503
		c-2.73,20.172-4.055,39.393-4.055,57.704s1.324,37.552,4.055,57.704c2.731,20.172,6.538,40.014,11.462,59.503
		c4.883,19.49,10.925,38.131,18.042,55.924c7.117,17.794,15.228,33.642,24.413,47.545l-9.186,5.09
		c-9.146-15.248-17.462-31.779-24.91-49.572s-13.821-36.352-19.076-55.676s-9.228-39.166-11.917-59.504
		C8175.331,254.235,8173.966,233.897,8173.966,213.56z"/>
</g>
<g id="Z">
	<path class="st0" d="M7982.297,360.001v-12.207L8121.621,10.18h-137.297V0.001h147.435v13.738l-138.29,336.083h140.855v10.179
		H7982.297z"/>
</g>
<g id="Y">
	<path class="st0" d="M7869.951,202.367v157.634h-10.179V202.367L7771.801,0.001h11.709l81.559,189.146l82.139-189.146h12.207
		L7869.951,202.367z"/>
</g>
<g id="X">
	<path class="st0" d="M7743.828,360.001l-83.918-178.986l-84.393,178.986h-12.207l89.979-188.648l-81.33-171.352h11.689
		l76.262,160.676l75.766-160.676h12.207l-81.352,171.352l90,188.648H7743.828z"/>
</g>
<g id="W">
	<path class="st0" d="M7464.683,360.001h-18.807l-71.193-347.276h-0.497l-69.661,347.276h-18.827l-75.249-360h11.193l72.703,349.821
		h1.015l70.695-349.821h16.779l72.188,349.821h1.014l72.724-349.821h11.173L7464.683,360.001z"/>
</g>
<g id="V">
	<path class="st0" d="M7101.145,360.001h-15.766l-90-360h11.193l86.441,349.821h1.014l87.455-349.821h11.173L7101.145,360.001z"/>
</g>
<g id="U">
	<path class="st0" d="M6941.462,283.47c-3.041,17.132-8.131,31.966-15.248,44.504s-16.614,22.365-28.469,29.482
		c-11.876,7.117-26.606,10.676-44.235,10.676c-17.979,0-32.896-3.559-44.751-10.676c-11.876-7.117-21.353-16.944-28.47-29.482
		s-12.123-27.372-15-44.504c-2.896-17.11-4.323-35.503-4.323-55.158V0.001h11.192v222.704c0,16.282,0.932,32.482,2.793,48.559
		c1.863,16.117,5.67,30.6,11.441,43.489c5.752,12.89,13.986,23.297,24.662,31.262c10.676,7.966,24.828,11.959,42.455,11.959
		c17.276,0,31.263-3.89,41.938-11.71c10.676-7.779,18.993-18.042,24.931-30.745c5.918-12.725,9.828-27.124,11.689-43.221
		c1.863-16.097,2.794-32.628,2.794-49.593V0.001h11.192v228.311C6946.055,247.967,6944.524,266.359,6941.462,283.47z"/>
</g>
<g id="T">
	<path class="st0" d="M6646.572,10.18v349.821H6635.4V10.18h-71.193V0.001h153.559V10.18H6646.572z"/>
</g>
<g id="S">
	<path class="st0" d="M6539.793,275.588c0,14.938-2.131,28.158-6.352,39.661c-4.241,11.524-10.097,21.187-17.545,28.986
		c-7.469,7.801-16.014,13.738-25.676,17.793c-9.662,4.076-19.759,6.104-30.27,6.104c-17.275,0-32.627-3.807-46.014-11.441
		c-13.386-7.613-24.33-18.559-32.793-32.793l9.145-6.6c8.152,13.552,18.477,23.73,31.035,30.496
		c12.538,6.786,25.241,10.18,38.131,10.18c9.145,0,17.876-1.862,26.172-5.606c8.318-3.725,15.601-9.062,21.869-16.015
		c6.27-6.931,11.359-15.579,15.27-25.924c3.89-10.345,5.834-22.117,5.834-35.338c0-12.207-2.027-23.048-6.104-32.545
		c-4.055-9.496-9.393-17.876-16.014-25.179c-6.6-7.283-13.986-13.635-22.117-19.056s-16.262-10.18-24.414-14.234
		c-9.475-4.759-18.724-10.097-27.703-16.014c-8.979-5.938-16.861-12.89-23.648-20.855c-6.785-7.966-12.289-17.193-16.531-27.704
		c-4.24-10.51-6.352-22.717-6.352-36.621c0-14.917,2.215-28.035,6.621-39.414c4.407-11.338,10.324-20.834,17.793-28.469
		c7.449-7.614,16.097-13.386,25.924-17.276c9.828-3.91,20.173-5.855,31.014-5.855c13.904,0,26.711,2.793,38.4,8.379
		c11.689,5.607,21.27,15,28.717,28.221l-8.131,6.621c-7.447-12.538-16.179-21.187-26.172-25.924
		c-10.014-4.759-21.104-7.138-33.311-7.138c-8.482,0-16.861,1.614-25.18,4.842c-8.296,3.228-15.744,8.131-22.365,14.751
		c-6.6,6.6-11.959,15.083-16.014,25.407c-4.076,10.345-6.104,22.635-6.104,36.869c0,12.559,1.862,23.483,5.586,32.793
		c3.725,9.331,8.648,17.379,14.752,24.166c6.104,6.787,12.973,12.704,20.586,17.793c7.635,5.089,15.166,9.497,22.635,13.221
		c10.511,5.42,20.504,11.276,30,17.545c9.477,6.269,17.876,13.469,25.158,21.6c7.305,8.132,13.139,17.463,17.545,27.973
		C6537.58,249.498,6539.793,261.705,6539.793,275.588z"/>
</g>
<g id="R">
	<path class="st0" d="M6319.117,360.001l-75.766-181.531h-56.938v181.531h-11.193v-360h70.448c8.793,0,18.062,1.283,27.869,3.828
		c9.807,2.524,18.766,7.117,26.876,13.717c8.09,6.621,14.855,15.6,20.255,26.958c5.399,11.359,8.11,25.841,8.11,43.469
		c0,16.614-2.275,30.6-6.869,41.938c-4.572,11.359-10.406,20.607-17.523,27.724c-7.117,7.118-15.104,12.29-23.918,15.497
		c-8.813,3.228-17.462,4.842-25.924,4.842l76.779,182.027H6319.117z M6318.621,87.974c0-14.917-2.131-27.373-6.373-37.366
		c-4.241-10.014-9.827-17.979-16.779-23.917c-6.951-5.917-15-10.158-24.145-12.703s-18.477-3.807-27.973-3.807h-56.938v158.131
		h60.496c23.4,0,41.193-7.283,53.4-21.869C6312.518,131.877,6318.621,112.367,6318.621,87.974z"/>
</g>
<g id="Q">
	<path class="st0" d="M6103.035,176.442c0,20.007-1.697,39.331-5.09,57.973c-3.394,18.642-8.215,35.586-14.483,50.834
		c-6.29,15.27-14.069,28.407-23.399,39.414c-9.332,11.027-20.09,19.076-32.276,24.146v1.014h83.38v10.179H5992.18
		c-15.6,0-30-4.324-43.221-12.973c-13.221-8.627-24.745-21-34.572-37.117c-9.828-16.096-17.545-35.42-23.131-57.951
		c-5.587-22.552-8.4-47.711-8.4-75.518c0-27.124,2.627-51.952,7.883-74.483c5.255-22.552,12.724-41.958,22.386-58.221
		c9.662-16.283,21.269-28.986,34.821-38.131c13.551-9.166,28.469-13.738,44.752-13.738c16.592,0,31.695,4.572,45.248,13.738
		c13.551,9.145,25.179,21.952,34.841,38.379c9.642,16.448,17.11,35.938,22.366,58.469
		C6100.406,125.008,6103.035,149.67,6103.035,176.442z M6091.842,176.442c0-24.062-2.276-46.697-6.869-67.883
		c-4.572-21.186-11.09-39.662-19.572-55.428c-8.482-15.745-18.891-28.221-31.262-37.365c-12.394-9.145-26.193-13.738-41.441-13.738
		c-15.249,0-28.986,4.511-41.193,13.49c-12.207,8.979-22.553,21.269-31.014,36.869c-8.483,15.579-15,34.055-19.572,55.407
		c-4.573,21.352-6.869,44.234-6.869,68.648c0,24.083,2.296,46.614,6.869,67.635c4.572,21.021,11.089,39.393,19.572,55.158
		c8.461,15.766,18.889,28.139,31.262,37.117c12.372,9,26.193,13.47,41.441,13.47c15.6,0,29.586-4.821,41.959-14.483
		c12.372-9.662,22.695-22.53,31.014-38.648c8.296-16.096,14.668-34.572,19.075-55.406
		C6089.627,220.429,6091.842,198.809,6091.842,176.442z"/>
</g>
<g id="P">
	<path class="st0" d="M5834.049,89.504c0,14.917-2.027,28.221-6.104,39.91c-4.076,11.69-9.58,21.518-16.531,29.483
		c-6.952,7.966-15.166,14.069-24.662,18.311c-9.496,4.241-19.655,6.352-30.496,6.352h-62.545v176.441h-11.193v-360h70.676
		c9.166,0,18.476,1.448,27.973,4.324c9.496,2.876,18.123,7.717,25.924,14.503c7.8,6.766,14.255,15.931,19.324,27.455
		C5831.504,57.808,5834.049,72.208,5834.049,89.504z M5822.855,89.732c0-14.607-1.945-26.938-5.834-36.972
		c-3.911-10.014-9.084-18.187-15.518-24.476c-6.436-6.29-13.553-10.883-21.352-13.779c-7.801-2.876-15.601-4.324-23.4-4.324h-63.041
		v163.221h64.572c7.8,0,15.579-1.614,23.399-4.862c7.779-3.228,14.731-8.235,20.835-15.042c6.104-6.807,11.007-15.476,14.752-26.007
		C5820.993,116.959,5822.855,104.359,5822.855,89.732z"/>
</g>
<g id="O">
	<path class="st0" d="M5607.786,180.001c0,27.455-2.462,52.718-7.365,75.766c-4.925,23.049-12.042,42.89-21.372,59.482
		c-9.311,16.614-20.67,29.587-34.056,38.897c-13.407,9.331-28.737,13.985-46.014,13.985c-17.297,0-32.628-4.654-46.014-13.985
		c-13.407-9.311-24.766-22.283-34.076-38.897c-9.331-16.593-16.448-36.434-21.352-59.482c-4.925-23.048-7.386-48.311-7.386-75.766
		s2.296-52.697,6.869-75.766c4.572-23.048,11.44-42.869,20.605-59.482c9.146-16.614,20.504-29.566,34.056-38.897
		S5481-8.13,5498.979-8.13c17.276,0,32.606,4.655,46.014,13.986c13.386,9.331,24.745,22.283,34.056,38.897
		c9.33,16.614,16.447,36.434,21.372,59.482C5605.324,127.304,5607.786,152.546,5607.786,180.001z M5596.594,180.001
		c0-24.745-2.111-47.958-6.353-69.662c-4.241-21.683-10.427-40.49-18.559-56.441c-8.131-15.931-18.31-28.552-30.517-37.883
		c-12.187-9.31-26.256-13.986-42.187-13.986c-16.614,0-31.014,4.676-43.221,13.986c-12.207,9.331-22.386,21.952-30.518,37.883
		c-8.131,15.952-14.151,34.759-18.041,56.441c-3.911,21.704-5.855,44.917-5.855,69.662c0,24.745,1.944,47.876,5.855,69.414
		c3.89,21.518,9.91,40.345,18.041,56.441c8.132,16.097,18.311,28.8,30.518,38.131s26.606,13.986,43.221,13.986
		c16.262,0,30.497-4.655,42.703-13.986c12.207-9.331,22.366-22.034,30.518-38.131c8.131-16.097,14.234-34.924,18.29-56.441
		C5594.565,227.877,5596.594,204.746,5596.594,180.001z"/>
</g>
<g id="N">
	<path class="st0" d="M5297.627,360.001l-151.53-346.779h-1.014v346.779h-11.193v-360h18.311l151.014,346.263h1.014V0.001h11.193
		v360H5297.627z"/>
</g>
<g id="M">
	<path class="st0" d="M5032.221,360.001V12.208h-1.014l-108.828,347.793h-13.717L4800.352,12.208h-1.014v347.793h-11.193v-360
		h19.842l107.275,346.779h1.014L5023.572,0.001h19.82v360H5032.221z"/>
</g>
<g id="L">
	<path class="st0" d="M4625.441,360.001v-360h11.193v349.821h105.248v10.179H4625.441z"/>
</g>
<g id="K">
	<path class="st0" d="M4415.462,165.249L4549.697,0.001h13.717l-135.248,165.766l145.428,194.234h-14.234l-143.897-193.717h-0.517
		v193.717h-11.193v-360h11.193v165.248H4415.462z"/>
</g>
<g id="J">
	<path class="st0" d="M4311.973,305.588c-2.214,13.221-5.834,24.413-10.924,33.559c-5.09,9.165-11.959,16.282-20.607,21.372
		c-8.627,5.069-19.406,7.613-32.275,7.613c-17.297,0-31.014-5.172-41.193-15.496c-10.158-10.345-16.945-23.813-20.338-40.428
		l10.18-2.545c2.71,14.586,8.379,26.276,17.027,35.09s20.09,13.221,34.324,13.221c21.682,0,36.434-8.896,44.234-26.71
		c7.8-17.794,11.689-42.786,11.689-75V0.001h11.193v261.352C4315.283,277.636,4314.187,292.367,4311.973,305.588z"/>
</g>
<g id="I">
	<path class="st0" d="M4129.18,360.001v-360h11.193v360H4129.18z"/>
</g>
<g id="H">
	<path class="st0" d="M4027.49,360.001V178.47h-166.779v181.531h-11.193v-360h11.193v169.324h166.779V0.001h11.192v360H4027.49z"/>
</g>
<g id="G">
	<path class="st0" d="M3580.552,179.504c0,26.421,2.297,50.503,6.869,72.186c4.572,21.704,11.441,40.346,20.586,55.945
		c9.166,15.579,20.421,27.621,33.808,36.104c13.406,8.462,28.737,12.703,46.034,12.703c26.772,0,48.62-8.131,65.586-24.414V185.091
		h-60.518v-10.18h71.711v161.711c-8.483,8.462-19.324,15.579-32.545,21.352c-13.221,5.752-27.973,8.628-44.234,8.628
		c-18.993,0-35.772-4.304-50.338-12.952c-14.587-8.648-26.959-21.104-37.118-37.386c-10.179-16.263-17.896-35.918-23.151-58.966
		c-5.255-23.049-7.883-48.993-7.883-77.793c0-26.793,2.462-51.621,7.387-74.503c4.903-22.883,12.104-42.704,21.6-59.483
		c9.497-16.779,21.269-29.917,35.338-39.414c14.069-9.476,30.435-14.234,49.076-14.234c13.552,0,27.372,3.559,41.441,10.676
		c14.048,7.117,25.676,19.324,34.82,36.621l-9.145,5.586c-8.483-15.249-18.745-26.193-30.766-32.793
		c-12.041-6.621-24.145-9.931-36.352-9.931c-17.297,0-32.38,4.676-45.248,13.986c-12.89,9.331-23.483,21.952-31.779,37.883
		c-8.317,15.952-14.587,34.676-18.828,56.193C3582.662,131.628,3580.552,154.76,3580.552,179.504z"/>
</g>
<g id="F">
	<path class="st0" d="M3407.173,10.18v158.131h107.793v10.158h-107.793v181.531h-11.193v-360h127.117V10.18H3407.173z"/>
</g>
<g id="E">
	<path class="st0" d="M3195.145,360.001v-360h129.662V10.18h-118.469v158.131h111.352v10.158h-111.352v171.353h122.027v10.179
		H3195.145z"/>
</g>
<g id="D">
	<path class="st0" d="M3120.414,180.001c0,30.518-3.228,57.124-9.662,79.842c-6.455,22.696-15.104,41.421-25.945,56.172
		c-10.841,14.752-23.73,25.759-38.648,33.062c-14.917,7.282-30.683,10.924-47.275,10.924h-64.076v-360h64.572
		c16.614,0,32.297,3.642,47.049,10.945c14.73,7.283,27.621,18.393,38.627,33.29c11.028,14.917,19.656,33.662,25.945,56.193
		C3117.27,122.98,3120.414,149.504,3120.414,180.001z M2946,10.18v339.642h51.352c15.601,0,30.166-3.373,43.738-10.159
		c13.552-6.786,25.406-17.11,35.586-31.014c10.158-13.903,18.124-31.531,23.896-52.883c5.752-21.352,8.648-46.613,8.648-75.766
		c0-29.152-2.896-54.414-8.648-75.766c-5.772-21.352-13.738-38.979-23.896-52.883c-10.18-13.883-22.034-24.228-35.586-31.014
		c-13.572-6.766-28.138-10.159-43.738-10.159H2946z"/>
</g>
<g id="C">
	<path class="st0" d="M2842.035,355.926c-15.104,8.151-29.752,12.206-43.986,12.206c-18.642,0-35.008-4.82-49.076-14.482
		c-14.069-9.662-25.842-22.883-35.338-39.662c-9.497-16.779-16.697-36.62-21.6-59.503c-4.925-22.862-7.387-47.69-7.387-74.483
		c0-26.772,2.462-51.683,7.387-74.752c4.902-23.048,12.103-42.952,21.6-59.731c9.496-16.779,21.269-29.917,35.338-39.414
		c14.068-9.476,30.435-14.234,49.076-14.234c13.551,0,27.372,3.559,41.441,10.676c14.048,7.117,25.676,19.324,34.82,36.621
		l-9.145,5.586c-8.483-15.249-18.745-26.193-30.766-32.793c-12.042-6.621-24.145-9.931-36.352-9.931
		c-17.297,0-32.38,4.676-45.249,13.986c-12.89,9.331-23.482,21.952-31.779,37.883c-8.317,15.952-14.586,34.759-18.827,56.441
		c-4.241,21.704-6.352,44.917-6.352,69.662c0,24.745,2.11,47.876,6.352,69.414c4.241,21.518,10.593,40.345,19.076,56.441
		c8.462,16.097,19.138,28.8,32.027,38.131s27.786,13.986,44.752,13.986c13.221,0,26.441-4.076,39.662-12.207
		s24.062-20.669,32.545-37.635l9.145,5.607C2869.572,333.726,2857.117,347.794,2842.035,355.926z"/>
</g>
<g id="B">
	<path class="st0" d="M2632.283,263.897c0,19.324-2.711,35.173-8.11,47.545c-5.421,12.373-12.27,22.117-20.545,29.234
		c-8.276,7.117-17.317,12.124-27.104,15c-9.808,2.876-19.097,4.324-27.89,4.324h-79.076v-360h69.662
		c9.496,0,19.076,1.448,28.738,4.324s18.372,7.634,26.172,14.234c7.801,6.621,14.256,15.352,19.324,26.193
		c5.09,10.841,7.635,24.414,7.635,40.676c0,12.89-1.614,24.062-4.862,33.559s-7.407,17.627-12.538,24.414
		c-5.11,6.786-10.903,12.187-17.379,16.262c-6.477,4.076-12.952,7.117-19.428,9.145v1.034c6.435,1.014,13.428,3.476,21.041,7.366
		c7.594,3.89,14.689,9.579,21.29,17.027c6.579,7.47,12.083,16.966,16.469,28.47C2630.069,234.249,2632.283,247.967,2632.283,263.897
		z M2609.896,86.442c0-14.565-2.027-26.772-6.104-36.6c-4.055-9.828-9.393-17.627-16.014-23.4c-6.6-5.752-14.234-9.91-22.883-12.455
		s-17.71-3.807-27.207-3.807h-56.938v155.069h58.469c8.482,0,16.945-1.51,25.428-4.572c8.462-3.042,16.097-7.696,22.883-13.986
		c6.766-6.269,12.207-14.4,16.262-24.393C2607.869,112.304,2609.896,100.346,2609.896,86.442z M2621.586,265.429
		c0-16.282-2.275-30.165-6.848-41.689s-10.428-20.855-17.545-27.973s-14.918-12.289-23.4-15.518
		c-8.462-3.207-16.779-4.82-24.91-4.82h-68.131v174.394h64.572c11.193,0,21.435-1.594,30.766-4.821
		c9.311-3.228,17.358-8.214,24.145-15s12.041-15.517,15.766-26.192C2619.725,293.132,2621.586,280.346,2621.586,265.429z"/>
</g>
<g id="A">
	<path class="st0" d="M2381.09,257.298h-126.6l-27.455,102.703h-11.193l93.041-360h19.324l90,360h-11.193L2381.09,257.298z
		 M2257.035,247.118h121.51L2319.559,7.635h-2.027L2257.035,247.118z"/>
</g>
<g id="_x39_">
	<path class="st0" d="M2178.228,101.194c0,11.875-1.614,25.345-4.841,40.427c-3.229,15.083-8.896,32.276-17.028,51.6
		l-70.676,166.779h-13.221l77.794-178.986l-1.015-0.497c-4.075,6.787-11.11,12.704-21.104,17.793s-21.269,7.614-33.807,7.614
		c-12.207,0-23.151-2.69-32.793-8.132c-9.662-5.42-17.813-12.951-24.414-22.614c-6.62-9.662-11.689-20.938-15.248-33.828
		c-3.559-12.869-5.338-26.938-5.338-42.186c0-15.269,1.779-29.317,5.338-42.207s8.793-23.979,15.745-33.31
		c6.951-9.311,15.434-16.614,25.428-21.869c9.992-5.255,21.62-7.883,34.841-7.883c12.869,0,24.311,2.627,34.324,7.883
		c9.993,5.255,18.372,12.559,25.159,21.869c6.785,9.331,11.958,20.586,15.517,33.807S2178.228,85.263,2178.228,101.194z
		 M2167.035,101.194c0-14.297-1.531-27.414-4.573-39.352c-3.062-11.938-7.552-22.241-13.469-30.931
		c-5.938-8.689-13.221-15.497-21.869-20.441s-18.559-7.407-29.751-7.407c-10.842,0-20.587,2.379-29.235,7.159
		c-8.647,4.759-15.931,11.4-21.868,19.924c-5.938,8.524-10.511,18.662-13.718,30.414c-3.228,11.752-4.841,24.621-4.841,38.586
		c0,14.317,1.53,27.434,4.572,39.372c3.062,11.917,7.469,22.221,13.221,30.911c5.771,8.689,13.055,15.435,21.869,20.214
		c8.813,4.759,18.807,7.138,30,7.138c10.179,0,19.489-2.462,27.972-7.406c8.462-4.945,15.849-11.669,22.117-20.194
		c6.27-8.524,11.09-18.579,14.483-30.166C2165.338,127.449,2167.035,114.829,2167.035,101.194z"/>
</g>
<g id="_x38_">
	<path class="st0" d="M1958.069,264.291c0,31.221-7.387,56.007-22.117,74.317c-14.752,18.331-35.173,27.496-61.283,27.496
		c-12.89,0-24.393-2.379-34.572-7.138c-10.159-4.738-18.807-11.524-25.924-20.358c-7.117-8.835-12.642-19.531-16.531-32.09
		c-3.91-12.559-5.855-26.648-5.855-42.27c0-24.434,4.759-45.062,14.255-61.861c9.477-16.8,24.394-28.614,44.731-35.4v-1.014
		c-16.944-7.449-29.317-18.538-37.117-33.249s-11.689-31.717-11.689-51c0-12.538,1.53-24.104,4.572-34.779
		c3.062-10.655,7.635-19.965,13.738-27.91c6.103-7.966,13.717-14.131,22.882-18.538c9.146-4.386,19.655-6.6,31.511-6.6
		c12.207,0,22.883,2.214,32.048,6.6c9.146,4.407,16.779,10.593,22.883,18.538c6.083,7.965,10.677,17.276,13.718,27.931
		c3.062,10.655,4.572,22.262,4.572,34.779c0,19.304-3.993,36.476-11.938,51.538c-7.966,15.062-20.256,25.986-36.869,32.752v1.014
		c20.669,7.138,35.669,19.014,45,35.649C1953.394,219.332,1958.069,239.856,1958.069,264.291z M1946.876,264.663
		c0-13.593-1.779-26.09-5.338-37.469c-3.559-11.4-8.482-21.248-14.752-29.586c-6.269-8.317-13.903-14.772-22.883-19.366
		c-8.979-4.593-18.724-6.89-29.234-6.89s-20.173,2.297-28.986,6.89c-8.813,4.594-16.345,11.049-22.613,19.366
		c-6.29,8.338-11.193,18.186-14.752,29.586c-3.559,11.379-5.338,23.876-5.338,37.469c0,12.91,1.613,24.993,4.841,36.207
		c3.207,11.214,7.945,20.979,14.235,29.317c6.269,8.317,13.8,14.876,22.613,19.635c8.813,4.758,18.827,7.138,30,7.138
		c11.524,0,21.786-2.38,30.766-7.138c8.979-4.759,16.531-11.317,22.635-19.635c6.104-8.338,10.759-18.104,13.986-29.317
		C1945.262,289.656,1946.876,277.573,1946.876,264.663z M1936.717,81.353c0-11.172-1.365-21.517-4.075-31.014
		c-2.71-9.476-6.786-17.793-12.207-24.91s-11.938-12.621-19.572-16.531c-7.635-3.89-16.366-5.834-26.193-5.834
		s-18.559,1.945-26.173,5.834c-7.634,3.91-14.068,9.414-19.323,16.531c-5.256,7.117-9.249,15.435-11.959,24.91
		c-2.71,9.497-4.056,19.841-4.056,31.014c0,10.862,1.428,21.104,4.304,30.766c2.896,9.662,6.952,18.228,12.207,25.676
		c5.255,7.469,11.71,13.407,19.324,17.793c7.635,4.427,16.18,6.621,25.676,6.621c9.497,0,18.062-2.193,25.676-6.621
		c7.635-4.386,14.151-10.324,19.593-17.793c5.4-7.448,9.559-16.014,12.456-25.676C1935.27,102.456,1936.717,92.215,1936.717,81.353z
		"/>
</g>
<g id="_x37_">
	<path class="st0" d="M1725.187,13.739l-120.497,346.262h-12.207L1715.027,10.18h-146.958V0.001h157.117V13.739z"/>
</g>
<g id="_x36_">
	<path class="st0" d="M1341.828,253.739c0-27.124,7.944-57.455,23.896-91.014l76.779-162.724h13.221l-81.869,168.311l1.014,0.497
		c5.421-7.118,13.034-13.8,22.883-20.069c9.827-6.269,21.869-9.414,36.104-9.414c12.869,0,24.393,2.876,34.572,8.648
		c10.158,5.772,18.807,13.717,25.924,23.896c7.117,10.158,12.538,22.2,16.283,36.104c3.724,13.903,5.586,28.82,5.586,44.731
		c0,16.613-1.862,31.883-5.586,45.765c-3.745,13.904-9.331,25.862-16.779,35.855c-7.469,9.993-16.531,17.793-27.207,23.38
		c-10.676,5.606-22.966,8.399-36.869,8.399c-14.565,0-27.372-2.876-38.379-8.648c-11.027-5.751-20.173-13.634-27.455-23.647
		c-7.304-9.993-12.808-21.849-16.531-35.587C1343.669,284.484,1341.828,269.67,1341.828,253.739z M1353,253.739
		c0,15.248,1.862,29.234,5.607,41.938c3.724,12.725,8.958,23.483,15.744,32.297s14.918,15.683,24.414,20.586
		c9.496,4.925,20.007,7.366,31.531,7.366c11.523,0,21.931-2.524,31.262-7.614s17.214-12.207,23.648-21.352
		c6.435-9.166,11.358-20.09,14.752-32.813c3.372-12.704,5.068-26.504,5.068-41.441c0-14.896-1.613-28.718-4.82-41.421
		c-3.228-12.725-7.883-23.648-13.986-32.814c-6.104-9.145-13.717-16.262-22.883-21.352c-9.145-5.09-19.82-7.614-32.027-7.614
		c-11.524,0-22.034,2.71-31.531,8.131c-9.496,5.421-17.71,12.787-24.662,22.118c-6.951,9.331-12.372,20.338-16.262,33.041
		C1354.945,225.519,1353,239.153,1353,253.739z"/>
</g>
<g id="_x35_">
	<path class="st0" d="M1279.283,250.926c0,17.606-1.945,33.496-5.855,47.71c-3.89,14.193-9.476,26.297-16.779,36.269
		c-7.283,9.973-16.014,17.669-26.173,23.09c-10.179,5.4-21.538,8.11-34.075,8.11c-19.324,0-35.09-4.572-47.276-13.737
		c-12.207-9.146-21.869-21.166-28.986-36.104l10.159-5.069c6.786,14.565,15.683,25.676,26.71,33.29
		c11.007,7.634,24.146,11.441,39.394,11.441c10.179,0,19.655-2.359,28.469-7.117c8.813-4.738,16.365-11.607,22.635-20.587
		c6.269-8.979,11.275-20.007,15-33.041c3.724-13.056,5.586-27.89,5.586-44.504c0-14.565-1.428-28.221-4.304-40.924
		c-2.896-12.725-7.304-23.731-13.221-33.062c-5.938-9.31-13.407-16.593-22.386-21.848c-8.979-5.255-19.738-7.883-32.276-7.883
		c-9.496,0-19.075,1.614-28.737,4.821c-9.662,3.228-17.876,7.717-24.662,13.469l2.545-165.248h122.027V10.18h-111.849
		l-2.545,138.807c6.455-3.559,13.594-6.311,21.435-8.255c7.82-1.945,15.311-2.938,22.469-2.938c14.628,0,27.125,2.876,37.511,8.628
		c10.386,5.751,18.89,13.614,25.531,23.586c6.642,9.993,11.565,21.91,14.793,35.772
		C1277.669,219.663,1279.283,234.705,1279.283,250.926z"/>
</g>
<g id="_x34_">
	<path class="st0" d="M1024.014,266.442v93.559h-11.172v-93.559H885.207v-13.737L1004.711,0.001h19.303v256.263h48.828v10.179
		H1024.014z M1012.842,10.18h-1.014L895.387,256.264h117.455V10.18z"/>
</g>
<g id="_x33_">
	<path class="st0" d="M832.345,265.553c0,10.821-1.696,22.18-5.068,34.014c-3.353,11.855-8.524,22.697-15.497,32.504
		c-6.973,9.827-15.89,17.958-26.73,24.393c-10.842,6.414-23.897,9.642-39.146,9.642c-20.338,0-37.2-5.255-50.606-15.766
		c-13.387-10.51-23.462-24.413-30.248-41.689l10.179-4.572c5.752,15.579,14.648,28.138,26.689,37.613
		c12.021,9.497,26.69,14.235,43.986,14.235c12.869,0,24.062-2.876,33.559-8.628c9.477-5.772,17.276-13.056,23.38-21.869
		s10.593-18.559,13.489-29.234c2.876-10.676,4.304-20.938,4.304-30.766c0-28.82-7.531-50.938-22.614-66.352
		c-15.082-15.435-34.51-23.152-58.221-23.152h-5.586v-10.159h5.069c10.179,0,19.572-1.945,28.221-5.855
		c8.647-3.91,16.096-9.538,22.386-16.841c6.269-7.303,11.173-16.076,14.731-26.276c3.559-10.2,5.338-21.745,5.338-34.676
		c0-8.834-1.18-17.855-3.559-27.042c-2.359-9.166-6.104-17.586-11.173-25.241c-5.09-7.655-11.71-13.862-19.841-18.621
		c-8.132-4.759-17.794-7.138-28.986-7.138c-11.524,0-22.448,3.125-32.793,9.393c-10.346,6.29-18.559,15.352-24.662,27.207
		l-9.662-6.104c6.786-12.538,16.199-22.448,28.221-29.731C719.545-2.44,732.497-6.103,746.4-6.103
		c12.89,0,24.062,2.462,33.559,7.386c9.496,4.924,17.296,11.462,23.399,19.614s10.594,17.565,13.47,28.262
		c2.875,10.676,4.323,21.621,4.323,32.834c0,9.497-1.096,19.014-3.31,28.51c-2.193,9.497-5.772,18.331-10.676,26.462
		c-4.925,8.152-11.11,15.207-18.559,21.145c-7.449,5.938-16.449,9.931-26.938,11.958v1.014c21.166,3.062,38.234,12.952,51.207,29.71
		C825.849,217.573,832.345,239.153,832.345,265.553z"/>
</g>
<g id="_x32_">
	<path class="st0" d="M446.421,360.001V346.76l92.545-147.662c13.883-22.076,24.993-42.104,33.311-60.083
		c8.296-17.979,12.455-36.145,12.455-54.476c0-10.862-1.283-21.228-3.828-31.076c-2.545-9.848-6.269-18.497-11.172-25.965
		c-4.925-7.469-11.193-13.407-18.828-17.814c-7.613-4.427-16.51-6.621-26.689-6.621c-34.241,0-56.11,20.503-65.586,61.51
		l-10.676-2.545c5.068-21.683,13.717-38.462,25.924-50.338c12.207-11.855,28.986-17.793,50.338-17.793
		c12.538,0,23.4,2.462,32.545,7.386s16.613,11.462,22.365,19.614c5.772,8.152,9.993,17.483,12.725,27.993
		c2.71,10.531,4.055,21.393,4.055,32.586c0,11.213-1.097,21.745-3.289,31.593c-2.214,9.828-5.441,19.759-9.662,29.772
		c-4.241,10.014-9.497,20.545-15.766,31.572c-6.29,11.028-13.49,23.173-21.621,36.415l-86.938,138.993h135.766v10.179H446.421z"/>
</g>
<g id="_x31_">
	<path class="st0" d="M320.338,360.001V13.222l-70.696,57.973l-7.117-8.648l77.813-62.545h11.173v360H320.338z"/>
</g>
<g id="_x30_">
	<path class="st0" d="M84.414,366.104c-17.628,0-31.966-5.689-42.973-17.027c-11.027-11.358-19.572-25.945-25.676-43.738
		s-10.262-37.8-12.455-60C1.097,223.139,0,201.353,0,180.001s1.097-43.138,3.311-65.338c2.193-22.2,6.352-42.207,12.455-60
		s14.648-32.359,25.676-43.717C52.448-0.413,66.786-6.103,84.414-6.103c17.607,0,31.945,5.69,42.952,17.048
		c11.027,11.358,19.593,25.924,25.676,43.717c6.103,17.793,10.262,37.8,12.476,60c2.192,22.2,3.289,43.986,3.289,65.338
		s-1.097,43.138-3.289,65.338c-2.214,22.2-6.373,42.207-12.476,60c-6.083,17.793-14.648,32.38-25.676,43.738
		C116.359,360.415,102.021,366.104,84.414,366.104z M84.414,4.077c-11.193,0-20.772,3.125-28.738,9.393
		c-7.965,6.29-14.669,14.421-20.089,24.414c-5.421,10.014-9.745,21.352-12.952,34.076c-3.228,12.704-5.69,25.593-7.386,38.628
		c-1.697,13.055-2.793,25.696-3.29,37.882c-0.517,12.207-0.765,22.717-0.765,31.531c0,9.146,0.248,19.759,0.765,31.779
		c0.497,12.042,1.593,24.579,3.29,37.635c1.696,13.055,4.159,25.924,7.386,38.628c3.207,12.724,7.531,24.082,12.952,34.075
		c5.42,10.014,12.124,18.146,20.089,24.414c7.966,6.269,17.545,9.394,28.738,9.394c11.172,0,20.751-3.125,28.717-9.394
		c7.965-6.269,14.669-14.4,20.089-24.414c5.421-9.993,9.745-21.352,12.973-34.075c3.207-12.704,5.669-25.573,7.365-38.628
		c1.696-13.056,2.793-25.593,3.311-37.635c0.496-12.021,0.766-22.634,0.766-31.779c0-8.814-0.27-19.324-0.766-31.531
		c-0.518-12.186-1.614-24.827-3.311-37.882c-1.696-13.035-4.159-25.924-7.365-38.628c-3.228-12.724-7.552-24.062-12.973-34.076
		c-5.42-9.993-12.124-18.124-20.089-24.414C105.166,7.201,95.586,4.077,84.414,4.077z"/>
</g>
</svg>
